<?xml version="1.0" encoding="utf-8"?>
<!-- Generator: Adobe Illustrator 27.2.0, SVG Export Plug-In . SVG Version: 6.00 Build 0)  -->
<svg version="1.1" id="Layer_1" xmlns="http://www.w3.org/2000/svg" xmlns:xlink="http://www.w3.org/1999/xlink" x="0px" y="0px"
	 viewBox="0 0 187 60" style="enable-background:new 0 0 187 60;" xml:space="preserve">
<style type="text/css">
	.st0{fill:#4B0082;}
	.st1{display:none;fill:#FFFFFF;}
	.st2{fill:#FFFFFF;}
	.st3{enable-background:new    ;}
	.st4{fill:#231F20;}
</style>
<g id="XMLID_00000181078006452793058670000005153197521160117425_">
	<path id="XMLID_00000065074832973475639000000004845609826178982822_" class="st0" d="M0,29.8c0-7.7,0-11.5,1.3-14.5
		c1.7-4,4.9-7.2,8.9-8.9c3-1.3,6.9-1.3,14.5-1.3l0,0c7.7,0,11.5,0,14.5,1.3c4,1.7,7.2,4.9,8.9,8.9c1.3,3,1.3,6.9,1.3,14.5l0,0
		c0,7.7,0,11.5-1.3,14.5c-1.7,4-4.9,7.2-8.9,8.9c-3,1.3-6.9,1.3-14.5,1.3l0,0c-7.7,0-11.5,0-14.5-1.3c-4-1.7-7.2-4.9-8.9-8.9
		C0,41.3,0,37.5,0,29.8L0,29.8z"/>
	<g id="XMLID_00000160884862164581706200000016773995082930254009_">
		<g id="XMLID_00000009554949998766416430000007509237194820471685_">
			<path id="XMLID_00000023263881749282979160000014608399026109762747_" class="st1" d="M25.9,38.5c-0.4,0-0.8,0.1-1.2,0.1
				c-0.4,0-0.8,0-1.2-0.1c0.6,0.5,1,1.2,1.2,2C24.9,39.7,25.3,39.1,25.9,38.5z"/>
			<path id="XMLID_00000043431967709923294650000013900921734732165784_" class="st1" d="M24.7,42.6c-0.3,1.3-1.3,2.4-2.5,2.8
				c0.8,0.1,1.7,0.2,2.5,0.2c0.9,0,1.7-0.1,2.5-0.2C26,44.9,25,43.9,24.7,42.6z"/>
			<path id="XMLID_00000072274152586349852230000009041758598643041438_" class="st2" d="M24.7,9C14.6,9,6.4,17.2,6.4,27.3
				c0,7.5,4.6,14,11.1,16.8c-0.6-0.7-0.9-1.6-0.9-2.6c0-2,1.4-3.6,3.3-4c-3.8-1.8-6.5-5.7-6.5-10.2c0-6.3,5-11.3,11.3-11.3
				S36,21,36,27.3c0,4.5-2.6,8.4-6.5,10.2c1.9,0.4,3.3,2.1,3.3,4c0,1-0.3,1.8-0.9,2.5C38.4,41.3,43,34.8,43,27.3
				C43,17.2,34.8,9,24.7,9z"/>
		</g>
		<g id="XMLID_00000148655686920795551270000018248018939545241244_">
			<polygon id="XMLID_00000080178241770550497410000001094208116019543999_" class="st2" points="27.9,50.2 26.8,49.3 26.6,50.6 
				24.7,45.4 22.8,50.6 22.6,49.3 21.5,50.2 23.6,44.5 24.7,43.4 25.7,44.4 25.8,44.5 			"/>
			<g id="XMLID_00000158001112453450406010000016298987286965563010_">
				<path id="XMLID_00000102510497373056424850000008277826949077008302_" class="st2" d="M23.3,42l-1.1,1.1c-0.8,0.8-2.2,0.8-3.1,0
					s-0.8-2.2,0-3.1c0.8-0.8,2.2-0.8,3.1,0l0.8,0.8l0,0l0.2,0.2l0.9-0.9L23,39c-1.4-1.4-3.6-1.4-4.9,0c-1.4,1.4-1.4,3.6,0,4.9
					c1.4,1.4,3.6,1.4,4.9,0l1.1-1.1L23.3,42z"/>
				
					<rect id="XMLID_00000109748009251946187860000017696205318564494509_" x="24" y="40.9" transform="matrix(0.7072 -0.707 0.707 0.7072 -22.1721 29.6145)" class="st2" width="1.3" height="1.3"/>
				<path id="XMLID_00000160176858779432007860000010300928772215370426_" class="st2" d="M31.2,44c-0.1,0.1-0.1,0.1-0.2,0.2l0,0
					l0,0l0,0l0,0l0,0c0,0,0,0-0.1,0l0,0c-0.1,0.1-0.2,0.1-0.3,0.2h-0.1c0,0-0.1,0-0.1,0.1h-0.1h-0.1l0,0h-0.1H30
					c-1.2,0.4-2.6,0.2-3.6-0.8l0,0l-1.1-1.1l0.9-0.9l1.1,1.1l0,0l0,0c0.8,0.8,2.2,0.8,3.1,0c0.8-0.8,0.8-2.2,0-3.1
					c-0.8-0.8-2.2-0.8-3.1,0l0,0l-0.9,0.9l-0.2,0.2l-0.9-0.9l0,0l0,0l1.1-1.1l0,0l0,0c0.1-0.1,0.1-0.1,0.2-0.2l0,0c0,0,0,0,0.1-0.1
					l0,0l0,0l0,0l0.1-0.1l0,0l0,0l0,0l0,0c1.3-0.8,3.1-0.7,4.3,0.5C32.5,40.4,32.5,42.6,31.2,44z"/>
			</g>
			<polygon id="XMLID_00000175324994574349729520000008135478436363845259_" class="st2" points="25.1,40.2 25.1,40.2 25.1,40.1 			
				"/>
		</g>
	</g>
	<g id="XMLID_00000124143202269781203600000011764840139228660915_" class="st3">
		<path id="XMLID_00000103242548829957086850000005128727285473774234_" class="st4" d="M67.1,25.3c-1-1.3-2.7-2.5-5.1-2.5
			c-4.1,0-6.9,3.3-6.9,6.9c0,3.8,3,7,7,7c1.8,0,3.6-0.7,4.9-2.4h4.4c-1.7,3.6-5,6-9.4,6c-7.2,0-10.6-6-10.6-10.7
			C51.3,25.1,54.7,19,62,19c4.2,0,7.8,2.3,9.5,6.2H67.1z"/>
		<path id="XMLID_00000057838155241671188110000009294890032687327142_" class="st4" d="M73.9,19.4h3.8v8.2h7.5v-8.2h3.8v20.4h-3.8
			v-8.6h-7.5v8.6h-3.8V19.4z"/>
		<path id="XMLID_00000037669788821031295910000014116349975928583092_" class="st4" d="M99.5,19.4h3l8.5,20.4h-4.2l-2.1-5.3h-7.5
			l-2.1,5.3H91L99.5,19.4z M103.3,30.9l-2.3-6l-2.3,6H103.3z"/>
		<path id="XMLID_00000005969590231010716040000012482548333271865767_" class="st4" d="M113.1,19.4h3.8v16.8h6.2v3.7h-10V19.4z"/>
		<path id="XMLID_00000110442094139761477160000014100311536353619095_" class="st4" d="M132.1,19.4h3l8.5,20.4h-4.2l-2.1-5.3h-7.5
			l-2.1,5.3h-4.2L132.1,19.4z M135.9,30.9l-2.3-6l-2.3,6H135.9z"/>
		<path id="XMLID_00000081649306839164795010000012397162859891256715_" class="st4" d="M145.7,19.4h3.8l9.1,13.8V19.4h3.8v20.4
			h-3.8L149.5,26v13.8h-3.8V19.4z"/>
		<path id="XMLID_00000130611729248021320880000006810408482241691309_" class="st4" d="M186.9,29.4c-0.1,4.9-3,10.9-10.9,10.9
			c-7.4,0-10.9-5.7-10.9-10.6S168.8,19,176,19c4.7,0,8.4,2.4,9.9,6.4h-4.5c-1.6-2.6-4.4-2.7-5.4-2.7c-4.8,0-7.1,3.7-7.1,6.9
			c0,3.5,2.5,7,7.2,7c2.5,0,4.9-1.1,6-3.7h-8.5v-3.6H186.9z"/>
	</g>
</g>
</svg>
