<?xml version="1.0" encoding="utf-8"?>
<!-- Generator: Adobe Illustrator 27.5.0, SVG Export Plug-In . SVG Version: 6.00 Build 0)  -->
<svg version="1.1" id="Layer_1" xmlns="http://www.w3.org/2000/svg" xmlns:xlink="http://www.w3.org/1999/xlink" x="0px" y="0px"
	 viewBox="0 0 187 60" style="enable-background:new 0 0 187 60;" xml:space="preserve">
<style type="text/css">
	.st0{fill:#FFFFFF;}
	.st1{display:none;}
	.st2{display:inline;}
	.st3{clip-path:url(#XMLID_00000000194850295921102840000010352129380355860415_);}
	.st4{fill:url(#XMLID_00000105423361116709050940000017041190810557391037_);}
	.st5{display:none;fill:#292930;}
	.st6{display:none;fill:#4B0082;}
	.st7{fill:#4B0082;}
	.st8{enable-background:new    ;}
	.st9{fill:#231F20;}
</style>
<path id="XMLID_00000065074832973475639000000004845609826178982822_" class="st0" d="M0,29.3c0-7.6,0-11.4,1.2-14.4
	c1.7-4,4.8-7.2,8.8-8.8c3-1.2,6.8-1.2,14.4-1.2l0,0c7.6,0,11.4,0,14.4,1.2c4,1.7,7.2,4.8,8.8,8.8c1.2,3,1.2,6.8,1.2,14.4l0,0
	c0,7.6,0,11.4-1.2,14.4c-1.7,4-4.8,7.2-8.8,8.8c-3,1.2-6.8,1.2-14.4,1.2l0,0c-7.6,0-11.4,0-14.4-1.2c-4-1.7-7.2-4.8-8.8-8.8
	C0,40.7,0,36.9,0,29.3L0,29.3z"/>
<g id="XMLID_00000084502188116845045520000001049491604627865501_" class="st1">
	<g id="XMLID_00000056396055245929839440000004010567253379633799_" class="st2">
		<g id="XMLID_00000144321803202307185280000011938018446226076348_">
			<defs>
				<rect id="XMLID_00000110430939376564907830000014784267207497449118_" x="14" y="14" width="32" height="31"/>
			</defs>
			<clipPath id="XMLID_00000062173125053880770520000012717228319718724535_">
				<use xlink:href="#XMLID_00000110430939376564907830000014784267207497449118_"  style="overflow:visible;"/>
			</clipPath>
			
				<g id="XMLID_00000145022424055106221490000007326483098207177126_" style="clip-path:url(#XMLID_00000062173125053880770520000012717228319718724535_);">
				
					<linearGradient id="XMLID_00000160868708235547833480000013516929710128194996_" gradientUnits="userSpaceOnUse" x1="17.5078" y1="-745.9429" x2="37.453" y2="-761.6537" gradientTransform="matrix(1 0 0 -1 0 -722.1102)">
					<stop  offset="0" style="stop-color:#5D59EA"/>
					<stop  offset="1" style="stop-color:#9A91FF"/>
				</linearGradient>
				
					<path id="XMLID_00000163789100334432904750000015397725108787262080_" style="fill:url(#XMLID_00000160868708235547833480000013516929710128194996_);" d="
					M44.5,31.8l-8.9-15.5l0,0c-1.7-3-6-3-7.7,0L14.4,39.9C14.1,40.4,14,41,14,41.6c0,1.8,1.4,3.4,3.3,3.4c1.2,0,2.3-0.6,2.9-1.7
					l10.7-18.7c0.4-0.7,1.4-0.7,1.8,0l3.4,5.9c0.3,0.6-0.1,1.3-0.8,1.3h-3.8c-1.8,0-3.3,1.5-3.3,3.4l0,0c0,1.9,1.5,3.4,3.3,3.4h9.2
					h2.1c2.5,0,4.1-2.7,2.8-4.9L44.5,31.8z"/>
			</g>
		</g>
	</g>
</g>
<path id="XMLID_00000001658730788313993010000010769333936741364382_" class="st5" d="M93.9,35.8h-7.8l-1.3,3.7h-4.1l7-19.6h4.6
	l7,19.6h-4.1L93.9,35.8z M92.9,32.6L90,24.5l-2.8,8.2h5.7C92.9,32.7,92.9,32.6,92.9,32.6z M105.1,26.3c0.5-0.7,1.2-1.4,2.1-1.8
	c0.9-0.5,1.9-0.7,3.1-0.7c1.3,0,2.5,0.3,3.6,1s1.9,1.6,2.5,2.8c0.6,1.2,1,2.6,1,4.2c0,1.6-0.3,3-1,4.2c-0.6,1.2-1.5,2.2-2.5,2.8
	c-1.1,0.7-2.3,1-3.6,1c-1.2,0-2.2-0.2-3.1-0.7s-1.5-1.1-2.1-1.8v2.2h-3.9V18.8h3.9V26.3z M113.3,31.7c0-0.9-0.2-1.7-0.6-2.4
	c-0.4-0.7-0.9-1.2-1.5-1.6s-1.3-0.5-2-0.5s-1.4,0.2-2,0.6s-1.1,0.9-1.5,1.6s-0.6,1.5-0.6,2.4s0.2,1.7,0.6,2.4s0.9,1.2,1.5,1.6
	c0.6,0.4,1.3,0.5,2,0.5s1.4-0.2,2-0.6c0.6-0.4,1.1-0.9,1.5-1.6C113.1,33.5,113.3,32.6,113.3,31.7z M125.2,39.8
	c-1.3,0-2.4-0.2-3.4-0.7s-1.8-1.1-2.4-1.9c-0.6-0.8-0.9-1.7-1-2.6h3.9c0.1,0.6,0.4,1.1,0.9,1.5s1.2,0.6,1.9,0.6
	c0.7,0,1.3-0.1,1.7-0.4c0.4-0.3,0.6-0.7,0.6-1.1c0-0.5-0.3-0.9-0.8-1.1c-0.5-0.3-1.3-0.5-2.4-0.8c-1.2-0.3-2.1-0.6-2.9-0.9
	c-0.7-0.3-1.4-0.8-1.9-1.4s-0.8-1.4-0.8-2.5c0-0.9,0.2-1.6,0.7-2.4c0.5-0.7,1.2-1.3,2.1-1.7c0.9-0.4,2-0.6,3.3-0.6
	c1.8,0,3.3,0.5,4.4,1.4c1.1,0.9,1.7,2.2,1.8,3.7h-3.8c-0.1-0.6-0.3-1.1-0.8-1.5c-0.4-0.4-1.1-0.6-1.8-0.6c-0.7,0-1.3,0.1-1.7,0.4
	c-0.4,0.3-0.6,0.6-0.6,1.1s0.3,0.9,0.8,1.2c0.5,0.3,1.3,0.5,2.4,0.8s2,0.6,2.8,0.9c0.7,0.3,1.4,0.8,1.9,1.4c0.5,0.6,0.8,1.4,0.8,2.5
	c0,0.9-0.3,1.7-0.8,2.4s-1.2,1.3-2.1,1.7C127.5,39.6,126.4,39.8,125.2,39.8z M138.3,27.2v7.5c0,0.5,0.1,0.9,0.4,1.1
	c0.3,0.2,0.7,0.3,1.3,0.3h1.8v3.3h-2.5c-3.3,0-5-1.6-5-4.8v-7.5h-1.8V24h1.8v-3.8h3.9V24h3.5v3.2H138.3z M147.6,26.4
	c0.5-0.8,1.2-1.5,2-1.9c0.8-0.5,1.8-0.7,2.8-0.7v4.1h-1c-1.2,0-2.2,0.3-2.8,0.9s-0.9,1.6-0.9,3v7.7h-3.9V24h3.9v2.4H147.6z
	 M153.2,31.7c0-1.6,0.3-3,0.9-4.2c0.6-1.2,1.5-2.1,2.5-2.8c1.1-0.7,2.3-1,3.6-1c1.2,0,2.2,0.2,3,0.7c0.9,0.5,1.6,1.1,2.1,1.8V24h3.9
	v15.5h-3.9v-2.3c-0.5,0.7-1.2,1.3-2.1,1.8c-0.9,0.5-1.9,0.7-3.1,0.7c-1.3,0-2.5-0.3-3.6-1s-1.9-1.6-2.5-2.8
	C153.5,34.7,153.2,33.3,153.2,31.7z M165.4,31.7c0-1-0.2-1.8-0.6-2.4c-0.4-0.7-0.9-1.2-1.5-1.6s-1.3-0.6-2-0.6s-1.4,0.2-2,0.5
	c-0.6,0.4-1.1,0.9-1.5,1.6s-0.6,1.5-0.6,2.4s0.2,1.8,0.6,2.5c0.4,0.7,0.9,1.2,1.5,1.6c0.6,0.4,1.3,0.6,2,0.6s1.4-0.2,2-0.5
	c0.6-0.4,1.1-0.9,1.5-1.6C165.2,33.5,165.4,32.7,165.4,31.7z M181.5,39.5l-5.3-6.6v6.6h-3.9V18.8h3.9v11.8l5.2-6.6h5.1l-6.8,7.8
	l6.9,7.7H181.5z"/>
<g id="XMLID_00000160884862164581706200000016773995082930254009_">
	<g id="XMLID_00000009554949998766416430000007509237194820471685_">
		<path id="XMLID_00000023263881749282979160000014608399026109762747_" class="st6" d="M25.7,38c-0.4,0-0.8,0.1-1.2,0.1
			c-0.4,0-0.8,0-1.2-0.1c0.6,0.5,1,1.2,1.2,2C24.7,39.2,25.1,38.5,25.7,38z"/>
		<path id="XMLID_00000043431967709923294650000013900921734732165784_" class="st6" d="M24.5,42c-0.3,1.3-1.3,2.3-2.5,2.8
			c0.8,0.1,1.7,0.2,2.5,0.2c0.9,0,1.7-0.1,2.5-0.2C25.8,44.3,24.8,43.3,24.5,42z"/>
		<path id="XMLID_00000072274152586349852230000009041758598643041438_" class="st7" d="M24.5,8.6c-10,0-18.2,8.1-18.2,18.2
			c0,7.5,4.5,13.9,11,16.7c-0.6-0.7-0.9-1.6-0.9-2.5c0-2,1.4-3.6,3.3-4c-3.8-1.8-6.4-5.7-6.4-10.2c0-6.2,5-11.2,11.2-11.2
			s11.2,5,11.2,11.2c0,4.5-2.6,8.3-6.4,10.1c1.9,0.4,3.3,2,3.3,4c0,1-0.3,1.8-0.9,2.5c6.5-2.8,11-9.2,11-16.7
			C42.7,16.8,34.5,8.6,24.5,8.6z"/>
	</g>
	<g id="XMLID_00000148655686920795551270000018248018939545241244_">
		<polygon id="XMLID_00000080178241770550497410000001094208116019543999_" class="st7" points="27.6,49.5 26.6,48.7 26.4,50 
			24.5,44.8 22.6,50 22.4,48.7 21.4,49.5 23.4,43.9 24.5,42.8 25.5,43.8 25.6,43.9 		"/>
		<g id="XMLID_00000158001112453450406010000016298987286965563010_">
			<path id="XMLID_00000102510497373056424850000008277826949077008302_" class="st7" d="M23.1,41.4L22,42.5c-0.8,0.8-2.2,0.8-3,0
				s-0.8-2.2,0-3s2.2-0.8,3,0l0.8,0.8l0,0l0.2,0.2l0.9-0.9L23,38.5c-1.4-1.4-3.6-1.4-4.9,0c-1.4,1.4-1.4,3.6,0,4.9
				c1.4,1.4,3.6,1.4,4.9,0l1.1-1.1L23.1,41.4z"/>
			
				<rect id="XMLID_00000109748009251946187860000017696205318564494509_" x="23.8" y="40.3" transform="matrix(0.7072 -0.707 0.707 0.7072 -21.8108 29.2646)" class="st7" width="1.3" height="1.3"/>
			<path id="XMLID_00000160176858779432007860000010300928772215370426_" class="st7" d="M30.9,43.4c-0.1,0.1-0.1,0.1-0.2,0.2l0,0
				l0,0l0,0l0,0l0,0c0,0,0,0-0.1,0l0,0c-0.1,0.1-0.2,0.1-0.3,0.2c0,0,0,0-0.1,0c0,0-0.1,0-0.1,0.1H30h-0.1l0,0h-0.1h-0.1
				c-1.2,0.4-2.6,0.2-3.6-0.8l0,0L25,42l0.9-0.9l1.1,1.1l0,0l0,0c0.8,0.8,2.2,0.8,3,0s0.8-2.2,0-3s-2.2-0.8-3,0l0,0l-0.9,0.9
				l-0.2,0.2L25,39.4l0,0l0,0l1.1-1.1l0,0l0,0c0.1-0.1,0.1-0.1,0.2-0.2l0,0c0,0,0,0,0.1-0.1l0,0l0,0l0,0l0.1-0.1l0,0l0,0l0,0l0,0
				c1.3-0.8,3.1-0.7,4.3,0.5C32.3,39.9,32.3,42.1,30.9,43.4z"/>
		</g>
		<path id="XMLID_00000175324994574349729520000008135478436363845259_" class="st7" d="M24.9,39.6L24.9,39.6L24.9,39.6z"/>
	</g>
</g>
<g id="XMLID_00000052063108864561015600000014466185976056329869_" class="st8">
	<path id="XMLID_00000067195915292632252160000010875330518367647373_" class="st9" d="M64.5,24.8c-1-1.3-2.7-2.5-5.1-2.5
		c-4.1,0-6.9,3.3-6.9,6.9c0,3.8,3,7,6.9,7c1.8,0,3.6-0.7,4.9-2.4h4.4c-1.7,3.6-4.9,6-9.3,6c-7.1,0-10.6-6-10.6-10.6
		c0-4.5,3.4-10.5,10.6-10.5c4.2,0,7.7,2.3,9.4,6.2L64.5,24.8L64.5,24.8z"/>
	<path id="XMLID_00000002381547168194866150000000837461809039018382_" class="st9" d="M71.2,19H75v8.1h7.4V19h3.8v20.3h-3.8v-8.5
		H75v8.5h-3.8V19z"/>
	<path id="XMLID_00000040576164629836062450000001048468493062826652_" class="st9" d="M96.6,19h3l8.4,20.3h-4.1l-2.1-5.2h-7.5
		l-2.1,5.2h-4.1L96.6,19z M100.4,30.4l-2.3-5.9l-2.3,5.9H100.4z"/>
	<path id="XMLID_00000179644002117550083330000010828769674617207720_" class="st9" d="M110.1,19h3.8v16.6h6.2v3.6h-9.9V19H110.1z"
		/>
	<path id="XMLID_00000131366562982765744540000003343428664004654227_" class="st9" d="M128.9,19h3l8.4,20.3h-4.1l-2.1-5.2h-7.5
		l-2.1,5.2h-4.1L128.9,19z M132.8,30.4l-2.3-5.9l-2.3,5.9H132.8z"/>
	<path id="XMLID_00000078761049262837329970000010892384228932366468_" class="st9" d="M142.5,19h3.8l9,13.7V19h3.8v20.3h-3.8
		l-9-13.7v13.7h-3.8V19z"/>
	<path id="XMLID_00000040550593985350819470000010206957227791712652_" class="st9" d="M183.3,28.9c-0.1,4.8-3,10.8-10.8,10.8
		c-7.4,0-10.8-5.6-10.8-10.5s3.7-10.6,10.8-10.6c4.7,0,8.3,2.4,9.8,6.3h-4.5c-1.6-2.6-4.4-2.7-5.3-2.7c-4.7,0-7,3.7-7,6.9
		c0,3.5,2.5,7,7.2,7c2.5,0,4.8-1.1,5.9-3.6h-8.5V29h13.2V28.9z"/>
</g>
</svg>
