<?xml version="1.0" encoding="utf-8"?>
<!-- Generator: Adobe Illustrator 27.5.0, SVG Export Plug-In . SVG Version: 6.00 Build 0)  -->
<svg version="1.1" id="Layer_1" xmlns="http://www.w3.org/2000/svg" xmlns:xlink="http://www.w3.org/1999/xlink" x="0px" y="0px"
	 viewBox="0 0 187 60" style="enable-background:new 0 0 187 60;" xml:space="preserve">
<style type="text/css">
	.st0{fill:#FFFFFF;}
	.st1{display:none;fill:#4B0082;}
	.st2{fill:#4B0082;}
	.st3{enable-background:new    ;}
</style>
<g id="XMLID_00000095304988254832965310000004081811489827040916_">
	<path id="XMLID_00000065074832973475639000000004845609826178982822_" class="st0" d="M0,30.3C0,22.7,0,18.9,1.3,16
		c1.7-4,4.8-7.1,8.8-8.8c3-1.3,6.8-1.3,14.3-1.3l0,0c7.6,0,11.4,0,14.3,1.3c4,1.7,7.1,4.8,8.8,8.8c1.3,3,1.3,6.8,1.3,14.3l0,0
		c0,7.6,0,11.4-1.3,14.3c-1.7,4-4.8,7.1-8.8,8.8c-3,1.3-6.8,1.3-14.3,1.3l0,0c-7.6,0-11.4,0-14.3-1.3c-4-1.7-7.1-4.8-8.8-8.8
		C0,41.7,0,37.9,0,30.3L0,30.3z"/>
	<g id="XMLID_00000160884862164581706200000016773995082930254009_">
		<g id="XMLID_00000009554949998766416430000007509237194820471685_">
			<path id="XMLID_00000023263881749282979160000014608399026109762747_" class="st1" d="M25.6,39c-0.4,0-0.8,0.1-1.2,0.1
				c-0.4,0-0.8,0-1.2-0.1c0.6,0.5,1,1.2,1.2,2C24.6,40.2,25.1,39.5,25.6,39z"/>
			<path id="XMLID_00000043431967709923294650000013900921734732165784_" class="st1" d="M24.4,42.9c-0.3,1.3-1.3,2.4-2.5,2.8
				c0.8,0.1,1.7,0.2,2.5,0.2c0.9,0,1.7-0.1,2.5-0.2C25.7,45.3,24.8,44.2,24.4,42.9z"/>
			<path id="XMLID_00000072274152586349852230000009041758598643041438_" class="st2" d="M24.4,9.7c-10,0-18.1,8.1-18.1,18.1
				c0,7.4,4.5,13.8,11,16.6c-0.6-0.7-0.9-1.6-0.9-2.6c0-2,1.4-3.6,3.3-4c-3.8-1.8-6.4-5.6-6.4-10.1c0-6.1,5-11.2,11.2-11.2
				s11.2,5,11.2,11.2c0,4.4-2.6,8.3-6.4,10.1c1.9,0.4,3.3,2.1,3.3,4c0,1-0.3,1.8-0.9,2.5c6.5-2.7,11-9.1,11-16.5
				C42.5,17.8,34.4,9.7,24.4,9.7z"/>
		</g>
		<g id="XMLID_00000148655686920795551270000018248018939545241244_">
			<polygon id="XMLID_00000080178241770550497410000001094208116019543999_" class="st2" points="27.6,50.5 26.6,49.6 26.3,50.9 
				24.4,45.7 22.5,50.9 22.3,49.6 21.3,50.5 23.3,44.8 24.4,43.7 25.5,44.8 25.5,44.8 			"/>
			<g id="XMLID_00000158001112453450406010000016298987286965563010_">
				<path id="XMLID_00000102510497373056424850000008277826949077008302_" class="st2" d="M23,42.3l-1.1,1.1c-0.8,0.8-2.2,0.8-3.1,0
					c-0.9-0.8-0.8-2.2,0-3.1c0.8-0.8,2.2-0.8,3.1,0l0.8,0.8l0,0l0.2,0.2l0.9-0.9l-1.1-1.1c-1.4-1.4-3.6-1.4-4.8,0
					c-1.4,1.4-1.4,3.6,0,4.8c1.4,1.4,3.6,1.4,4.8,0l1.1-1.1L23,42.3z"/>
				
					<rect id="XMLID_00000109748009251946187860000017696205318564494509_" x="23.8" y="41.3" transform="matrix(0.7072 -0.707 0.707 0.7072 -22.4649 29.5455)" class="st2" width="1.3" height="1.3"/>
				<path id="XMLID_00000160176858779432007860000010300928772215370426_" class="st2" d="M30.8,44.3c-0.1,0.1-0.1,0.1-0.2,0.2l0,0
					l0,0l0,0l0,0l0,0c0,0,0,0-0.1,0l0,0c-0.1,0.1-0.2,0.1-0.3,0.2h-0.1c0,0-0.1,0-0.1,0.1h-0.1h-0.1l0,0h-0.1h-0.1
					c-1.2,0.4-2.6,0.2-3.6-0.8l0,0L25,42.9l0.9-0.9l1.1,1.1l0,0l0,0c0.8,0.8,2.2,0.8,3.1,0c0.8-0.8,0.8-2.2,0-3.1
					c-0.8-0.8-2.2-0.8-3.1,0l0,0L26.1,41l-0.3,0.5l-0.9-0.9l0,0l0,0l1.1-1.1l0,0l0,0c0.1-0.1,0.1-0.1,0.2-0.2l0,0c0,0,0,0,0.1-0.1
					l0,0l0,0l0,0l0.1-0.1l0,0l0,0l0,0l0,0c1.3-0.8,3.1-0.7,4.2,0.5C32.2,40.9,32.2,43,30.8,44.3z"/>
			</g>
			<path id="XMLID_00000175324994574349729520000008135478436363845259_" class="st2" d="M24.9,40.6L24.9,40.6L24.9,40.6z"/>
		</g>
	</g>
	<g id="XMLID_00000162324998832807035850000010582465290776454809_" class="st3">
		<path id="XMLID_00000150065940243947060680000016571362665878462381_" class="st0" d="M68.1,25.8c-1-1.3-2.7-2.5-5.1-2.5
			c-4,0-6.9,3.3-6.9,6.8c0,3.8,3,7,6.9,7c1.8,0,3.6-0.7,4.9-2.3h4.3c-1.7,3.5-4.9,6-9.3,6c-7.1,0-10.5-6-10.5-10.6
			c0-4.5,3.4-10.5,10.6-10.5c4.2,0,7.7,2.3,9.4,6.1H68.1z"/>
		<path id="XMLID_00000173154995241702170810000016628387582835561634_" class="st0" d="M74.7,20h3.7v8.1h7.4V20h3.7v20.2h-3.7v-8.5
			h-7.4v8.5h-3.7V20z"/>
		<path id="XMLID_00000094605827373715237230000012239825762369356217_" class="st0" d="M100,20h3l8.4,20.2h-4.1l-2.1-5.2h-7.4
			l-2.1,5.2h-4.1L100,20z M103.8,31.4l-2.3-5.9l-2.3,5.9H103.8z"/>
		<path id="XMLID_00000026846145754115990930000006007557536034205087_" class="st0" d="M113.5,20h3.7v16.6h6.2v3.6h-9.9V20z"/>
		<path id="XMLID_00000038402725177051088520000018158670705928912809_" class="st0" d="M132.3,20h3l8.4,20.2h-4.1l-2.1-5.2H130
			l-2.1,5.2h-4.1L132.3,20z M136.1,31.4l-2.3-5.9l-2.3,5.9H136.1z"/>
		<path id="XMLID_00000086670931013764396040000015127260509053320871_" class="st0" d="M145.7,20h3.7l9,13.6V20h3.7v20.2h-3.7
			l-9-13.6v13.6h-3.7V20z"/>
		<path id="XMLID_00000103947146367563497210000006885365265962347949_" class="st0" d="M186.4,30c-0.1,4.8-3,10.8-10.7,10.8
			c-7.3,0-10.8-5.6-10.8-10.5c0-4.9,3.7-10.6,10.7-10.6c4.6,0,8.3,2.3,9.8,6.3h-4.5c-1.6-2.6-4.3-2.7-5.3-2.7c-4.7,0-7,3.7-7,6.8
			c0,3.4,2.5,7,7.2,7c2.5,0,4.8-1.1,5.9-3.6h-8.4V30H186.4z"/>
	</g>
</g>
</svg>
